<svg width="512" height="512" viewBox="0 0 512 512" fill="none" xmlns="http://www.w3.org/2000/svg">
  <defs>
    <linearGradient id="bg" x1="72" y1="56" x2="448" y2="456" gradientUnits="userSpaceOnUse">
      <stop stop-color="#1B2028"/>
      <stop offset="1" stop-color="#101318"/>
    </linearGradient>
    <linearGradient id="accent" x1="144" y1="120" x2="380" y2="388" gradientUnits="userSpaceOnUse">
      <stop stop-color="#F3A522"/>
      <stop offset="1" stop-color="#FFCA6C"/>
    </linearGradient>
  </defs>
  <rect x="40" y="40" width="432" height="432" rx="112" fill="url(#bg)"/>
  <rect x="120" y="118" width="272" height="276" rx="44" fill="#171C23" stroke="rgba(255,255,255,0.08)"/>
  <rect x="162" y="170" width="34" height="34" rx="10" fill="url(#accent)"/>
  <rect x="216" y="176" width="118" height="16" rx="8" fill="#F4EFE5" fill-opacity="0.88"/>
  <rect x="216" y="202" width="92" height="12" rx="6" fill="#9AA3B2"/>
  <rect x="162" y="244" width="34" height="34" rx="10" fill="#3AC28C"/>
  <path d="M173 261L181 269L197 250" stroke="#101318" stroke-width="10" stroke-linecap="round" stroke-linejoin="round"/>
  <rect x="216" y="250" width="110" height="16" rx="8" fill="#F4EFE5" fill-opacity="0.88"/>
  <rect x="216" y="276" width="80" height="12" rx="6" fill="#9AA3B2"/>
  <rect x="162" y="318" width="34" height="34" rx="10" fill="#6EA8FE"/>
  <rect x="216" y="324" width="96" height="16" rx="8" fill="#F4EFE5" fill-opacity="0.88"/>
  <rect x="216" y="350" width="122" height="12" rx="6" fill="#9AA3B2"/>
</svg>
